HIERARCHY
ROOT hips
{
	OFFSET 0.000000 104.274902 0.000000
	CHANNELS 6 Xposition Yposition Zposition Xrotation Yrotation Zrotation
	JOINT spine
	{
		OFFSET 0.000000 10.181549 0.131524
		CHANNELS 6 Xposition Yposition Zposition Xrotation Yrotation Zrotation
		JOINT chest
		{
			OFFSET 0.000000 9.893990 -1.470706
			CHANNELS 3 Xrotation Yrotation Zrotation
			JOINT upperChest
			{
				OFFSET 0.000000 9.220787 -1.370637
				CHANNELS 3 Xrotation Yrotation Zrotation
				JOINT neck
				{
					OFFSET 0.000000 16.740372 -2.049022
					CHANNELS 6 Xposition Yposition Zposition Xrotation Yrotation Zrotation
					JOINT head
					{
						OFFSET 0.000000 9.617859 1.684976
						CHANNELS 6 Xposition Yposition Zposition Xrotation Yrotation Zrotation
						JOINT headEnd
						{
							OFFSET 0.000000 22.037384 7.501072
							CHANNELS 6 Xposition Yposition Zposition Xrotation Yrotation Zrotation
							End Site
							{
								OFFSET 0.000000 23.106567 -2.828246
							}
						}
					}
				}
				JOINT rightShoulder
				{
					OFFSET -4.570000 11.014877 -2.160840
					CHANNELS 6 Xposition Yposition Zposition Xrotation Yrotation Zrotation
					JOINT rightUpperArm
					{
						OFFSET -10.592867 -0.524796 -2.232105
						CHANNELS 3 Xrotation Yrotation Zrotation
						JOINT rightLowerArm
						{
							OFFSET -27.841497 0.000000 -0.000002
							CHANNELS 3 Xrotation Yrotation Zrotation
							JOINT rightHand
							{
								OFFSET -28.328812 0.000000 -0.000001
								CHANNELS 3 Xrotation Yrotation Zrotation
								JOINT rightThumbProximal
								{
									OFFSET -2.464798 -1.573990 2.681911
									CHANNELS 6 Xposition Yposition Zposition Xrotation Yrotation Zrotation
									JOINT rightThumbIntermediate
									{
										OFFSET -3.244781 -1.873383 1.873376
										CHANNELS 3 Xrotation Yrotation Zrotation
										JOINT rightThumbDistal
										{
											OFFSET -2.646263 -1.527817 1.527818
											CHANNELS 6 Xposition Yposition Zposition Xrotation Yrotation Zrotation
											JOINT rightHandThumb4
											{
												OFFSET -1.994591 -1.151581 1.151575
												CHANNELS 6 Xposition Yposition Zposition Xrotation Yrotation Zrotation
												End Site
												{
													OFFSET -1.860176 -1.142715 1.365483
												}
											}
										}
									}
								}
								JOINT rightIndexProximal
								{
									OFFSET -9.108299 -0.517883 2.259803
									CHANNELS 6 Xposition Yposition Zposition Xrotation Yrotation Zrotation
									JOINT rightIndexIntermediate
									{
										OFFSET -3.699997 0.000000 0.000000
										CHANNELS 3 Xrotation Yrotation Zrotation
										JOINT rightIndexDistal
										{
											OFFSET -2.850006 0.000000 0.000000
											CHANNELS 3 Xrotation Yrotation Zrotation
											JOINT rightHandIndex4
											{
												OFFSET -2.772194 0.000000 0.000000
												CHANNELS 3 Xrotation Yrotation Zrotation
												End Site
												{
													OFFSET -2.772202 0.000000 -0.000484
												}
											}
										}
									}
								}
								JOINT rightMiddleProximal
								{
									OFFSET -9.532501 0.000000 -0.000000
									CHANNELS 6 Xposition Yposition Zposition Xrotation Yrotation Zrotation
									JOINT rightMiddleIntermediate
									{
										OFFSET -3.699997 0.000000 0.000000
										CHANNELS 3 Xrotation Yrotation Zrotation
										JOINT rightMiddleDistal
										{
											OFFSET -2.949997 0.000000 0.000000
											CHANNELS 3 Xrotation Yrotation Zrotation
											JOINT rightHandMiddle4
											{
												OFFSET -2.946594 0.000000 0.000000
												CHANNELS 3 Xrotation Yrotation Zrotation
												End Site
												{
													OFFSET -2.946602 0.000000 -0.000982
												}
											}
										}
									}
								}
								JOINT rightRingProximal
								{
									OFFSET -9.103600 -0.043106 -1.865100
									CHANNELS 6 Xposition Yposition Zposition Xrotation Yrotation Zrotation
									JOINT rightRingIntermediate
									{
										OFFSET -3.379303 0.000000 0.000000
										CHANNELS 3 Xrotation Yrotation Zrotation
										JOINT rightRingDistal
										{
											OFFSET -2.889694 0.000000 0.000000
											CHANNELS 3 Xrotation Yrotation Zrotation
											JOINT rightHandRing4
											{
												OFFSET -2.638802 0.000000 0.000000
												CHANNELS 3 Xrotation Yrotation Zrotation
												End Site
												{
													OFFSET -2.638802 0.000000 0.004218
												}
											}
										}
									}
								}
								JOINT rightLittleProximal
								{
									OFFSET -8.076698 -0.486725 -3.806299
									CHANNELS 6 Xposition Yposition Zposition Xrotation Yrotation Zrotation
									JOINT rightLittleIntermediate
									{
										OFFSET -3.600006 0.000000 0.000000
										CHANNELS 3 Xrotation Yrotation Zrotation
										JOINT rightLittleDistal
										{
											OFFSET -2.099998 0.000000 0.000000
											CHANNELS 3 Xrotation Yrotation Zrotation
											JOINT rightHandPinky4
											{
												OFFSET -2.115791 0.000000 0.000000
												CHANNELS 3 Xrotation Yrotation Zrotation
												End Site
												{
													OFFSET -2.115799 0.000000 0.000174
												}
											}
										}
									}
								}
							}
						}
					}
				}
				JOINT leftShoulder
				{
					OFFSET 4.570400 11.014679 -2.160816
					CHANNELS 6 Xposition Yposition Zposition Xrotation Yrotation Zrotation
					JOINT leftUpperArm
					{
						OFFSET 10.592373 -0.524597 -2.232116
						CHANNELS 3 Xrotation Yrotation Zrotation
						JOINT leftLowerArm
						{
							OFFSET 27.841488 0.000000 0.000001
							CHANNELS 3 Xrotation Yrotation Zrotation
							JOINT leftHand
							{
								OFFSET 28.328808 0.000000 -0.000000
								CHANNELS 3 Xrotation Yrotation Zrotation
								JOINT leftThumbProximal
								{
									OFFSET 2.466103 -1.576202 2.681698
									CHANNELS 6 Xposition Yposition Zposition Xrotation Yrotation Zrotation
									JOINT leftThumbIntermediate
									{
										OFFSET 3.243317 -1.872528 1.872530
										CHANNELS 3 Xrotation Yrotation Zrotation
										JOINT leftThumbDistal
										{
											OFFSET 2.647881 -1.528763 1.528754
											CHANNELS 6 Xposition Yposition Zposition Xrotation Yrotation Zrotation
											JOINT leftHandThumb4
											{
												OFFSET 1.998924 -1.154083 1.154080
												CHANNELS 6 Xposition Yposition Zposition Xrotation Yrotation Zrotation
												End Site
												{
													OFFSET 1.884041 -1.149155 1.337651
												}
											}
										}
									}
								}
								JOINT leftIndexProximal
								{
									OFFSET 9.109299 -0.518005 2.259900
									CHANNELS 6 Xposition Yposition Zposition Xrotation Yrotation Zrotation
									JOINT leftIndexIntermediate
									{
										OFFSET 3.699997 0.000000 0.000000
										CHANNELS 3 Xrotation Yrotation Zrotation
										JOINT leftIndexDistal
										{
											OFFSET 2.850006 0.000000 0.000000
											CHANNELS 3 Xrotation Yrotation Zrotation
											JOINT leftHandIndex4
											{
												OFFSET 2.774895 0.000000 0.000000
												CHANNELS 3 Xrotation Yrotation Zrotation
												End Site
												{
													OFFSET 2.774902 0.000000 -0.000072
												}
											}
										}
									}
								}
								JOINT leftMiddleProximal
								{
									OFFSET 9.533401 0.000000 0.000000
									CHANNELS 6 Xposition Yposition Zposition Xrotation Yrotation Zrotation
									JOINT leftMiddleIntermediate
									{
										OFFSET 3.699997 0.000000 0.000000
										CHANNELS 3 Xrotation Yrotation Zrotation
										JOINT leftMiddleDistal
										{
											OFFSET 2.949997 0.000000 0.000000
											CHANNELS 3 Xrotation Yrotation Zrotation
											JOINT leftHandMiddle4
											{
												OFFSET 2.952896 0.000000 0.000000
												CHANNELS 3 Xrotation Yrotation Zrotation
												End Site
												{
													OFFSET 2.952904 0.000000 0.000165
												}
											}
										}
									}
								}
								JOINT leftRingProximal
								{
									OFFSET 9.104500 -0.042999 -1.865101
									CHANNELS 6 Xposition Yposition Zposition Xrotation Yrotation Zrotation
									JOINT leftRingIntermediate
									{
										OFFSET 3.149994 0.000000 0.000000
										CHANNELS 3 Xrotation Yrotation Zrotation
										JOINT leftRingDistal
										{
											OFFSET 2.950005 0.000000 0.000000
											CHANNELS 3 Xrotation Yrotation Zrotation
											JOINT leftHandRing4
											{
												OFFSET 2.644302 0.000000 0.000000
												CHANNELS 3 Xrotation Yrotation Zrotation
												End Site
												{
													OFFSET 2.644302 0.000000 0.000083
												}
											}
										}
									}
								}
								JOINT leftLittleProximal
								{
									OFFSET 8.077805 -0.486893 -3.806302
									CHANNELS 6 Xposition Yposition Zposition Xrotation Yrotation Zrotation
									JOINT leftLittleIntermediate
									{
										OFFSET 3.600006 0.000000 0.000000
										CHANNELS 3 Xrotation Yrotation Zrotation
										JOINT leftLittleDistal
										{
											OFFSET 2.099998 0.000000 0.000000
											CHANNELS 3 Xrotation Yrotation Zrotation
											JOINT leftHandPinky4
											{
												OFFSET 2.125496 0.000000 0.000000
												CHANNELS 3 Xrotation Yrotation Zrotation
												End Site
												{
													OFFSET 2.125504 0.000000 -0.001254
												}
											}
										}
									}
								}
							}
						}
					}
				}
			}
		}
	}
	JOINT rightUpperLeg
	{
		OFFSET -8.207800 -6.751701 -1.599544
		CHANNELS 6 Xposition Yposition Zposition Xrotation Yrotation Zrotation
		JOINT rightLowerLeg
		{
			OFFSET 0.000004 -44.370152 0.345934
			CHANNELS 3 Xrotation Yrotation Zrotation
			JOINT rightFoot
			{
				OFFSET 0.000004 -44.423664 -3.043535
				CHANNELS 3 Xrotation Yrotation Zrotation
				JOINT rightToes
				{
					OFFSET 0.000001 -8.728691 10.710592
					CHANNELS 3 Xrotation Yrotation Zrotation
					JOINT rightToesEnd
					{
						OFFSET 0.000000 -0.000665 9.278101
						CHANNELS 3 Xrotation Yrotation Zrotation
						End Site
						{
							OFFSET 0.000000 -0.000665 9.278103
						}
					}
				}
			}
		}
	}
	JOINT leftUpperLeg
	{
		OFFSET 8.207800 -6.751701 -1.599544
		CHANNELS 6 Xposition Yposition Zposition Xrotation Yrotation Zrotation
		JOINT leftLowerLeg
		{
			OFFSET 0.000004 -44.370037 0.346940
			CHANNELS 3 Xrotation Yrotation Zrotation
			JOINT leftFoot
			{
				OFFSET 0.000004 -44.423611 -3.044388
				CHANNELS 3 Xrotation Yrotation Zrotation
				JOINT leftToes
				{
					OFFSET 0.000001 -8.728690 10.710592
					CHANNELS 3 Xrotation Yrotation Zrotation
					JOINT leftToesEnd
					{
						OFFSET 0.000000 -0.000680 9.278101
						CHANNELS 3 Xrotation Yrotation Zrotation
						End Site
						{
							OFFSET 0.000000 -0.000680 9.278101
						}
					}
				}
			}
		}
	}
}
MOTION
Frames: 4
Frame Time: 0.033333
0.144184 103.379494 1.422840 -3.753051 -5.218524 -3.761039 -0.000001 10.181548 0.131524 3.293731 1.538089 2.729319 1.146036 0.329157 1.552971 1.123711 0.356192 1.550934 0.000001 16.740349 -2.049018 5.622661 -0.077170 0.463899 0.000000 9.617844 1.684978 -7.551144 1.374727 -0.084354 0.000001 22.037369 7.501072 0.000000 0.000000 -0.000000 -4.570004 11.014852 -2.160838 1.189532 15.344126 14.707062 13.162703 27.550859 58.780977 0.000003 6.689828 0.000027 -20.174711 -0.523635 6.792823 -2.464801 -1.573995 2.681911 -1.664524 -0.169110 -4.216942 12.708064 -29.838235 -16.127607 -2.646275 -1.527802 1.527817 -15.551980 -3.555864 -12.703328 -1.994586 -1.151572 1.151573 -0.000001 0.000000 0.000001 -9.108289 -0.517873 2.259803 0.037629 1.264475 6.828351 0.213878 -1.396489 17.412934 0.046084 -0.654319 8.059111 0.000003 -0.000001 0.000002 -9.532484 -0.000004 0.000000 -0.135884 -2.206384 14.998771 0.214461 -1.398413 17.437692 0.239806 -1.476588 18.447106 -0.000003 -0.000001 0.000001 -9.103599 -0.043114 -1.865102 0.031315 -3.078198 20.463785 0.308433 -1.668270 20.948509 0.225828 -1.434048 17.897095 -0.000000 0.000002 0.000005 -8.076690 -0.486739 -3.806299 0.748340 -4.885952 26.472212 0.214416 -1.398272 17.436033 0.192926 -1.327908 16.532280 0.000001 0.000000 -0.000002 4.570402 11.014679 -2.160813 1.046103 -17.445992 -12.316920 3.915540 -19.989508 -69.767698 -0.000015 -1.452708 -0.000018 -33.228396 -1.359939 -6.191287 2.466076 -1.576199 2.681696 -0.666021 2.158660 4.837367 11.859654 25.414873 17.056622 2.647857 -1.528756 1.528745 -13.811980 3.541925 9.030674 1.998917 -1.154094 1.154071 -0.000001 -0.000001 -0.000000 9.109278 -0.518011 2.259901 0.020410 -0.966540 -7.590925 0.267868 1.753004 -17.376522 0.057696 0.821052 -8.038802 0.000000 -0.000000 0.000001 9.533375 0.000001 0.000001 -0.077484 2.661845 -15.698691 0.268751 1.755806 -17.405226 0.300498 1.853982 -18.413072 -0.000001 0.000000 0.000002 9.104487 -0.042992 -1.865100 0.137931 3.644615 -21.134810 0.386543 2.094690 -20.910460 0.283107 1.800918 -17.867560 0.000000 -0.000002 0.000003 8.077804 -0.486891 -3.806302 0.923008 5.558256 -27.126875 0.268775 1.755875 -17.405882 0.241876 1.667695 -16.505528 0.000001 0.000000 0.000001 -8.207801 -6.751718 -1.599544 0.603847 -10.384687 3.498359 7.413702 -9.751022 -3.277154 -3.692790 -1.648794 3.209412 -7.273477 0.000003 -0.000002 -0.000000 -0.000000 0.000000 8.207801 -6.751714 -1.599543 -10.790248 14.736265 10.341490 12.169941 2.032091 4.165238 1.271544 0.516024 -7.110094 -4.933134 0.000009 -0.000001 0.000001 0.000000 0.000000 
-0.124853 103.145081 1.581324 -3.706628 -4.946196 -2.877274 0.000000 10.181545 0.131524 3.314991 1.536461 2.167404 1.132288 0.321180 1.418380 1.110935 0.346620 1.416581 0.000000 16.740353 -2.049021 5.707630 0.001056 0.424233 0.000000 9.617854 1.684978 -7.921991 1.635114 -0.129782 0.000001 22.037369 7.501074 0.000001 -0.000000 0.000000 -4.570000 11.014859 -2.160838 1.193369 15.352059 14.656947 12.951382 26.635849 58.555799 -0.000006 6.657021 0.000023 -18.251563 -0.300109 6.602663 -2.464815 -1.573991 2.681909 -1.664514 -0.168958 -4.216994 12.707929 -29.837429 -16.127253 -2.646266 -1.527792 1.527816 -15.551960 -3.555845 -12.703466 -1.994594 -1.151582 1.151573 0.000001 -0.000005 0.000001 -9.108323 -0.517866 2.259803 0.012656 1.118375 8.566726 0.277149 -1.584127 19.845518 0.075440 -0.835789 10.316271 0.000003 -0.000002 0.000002 -9.532515 -0.000006 -0.000000 -0.136400 -2.312230 16.248670 0.270698 -1.566194 19.611473 0.320551 -1.699529 21.360305 0.000000 -0.000001 0.000003 -9.103604 -0.043106 -1.865102 0.056424 -3.177703 21.314794 0.383179 -1.851655 23.381768 0.304985 -1.659212 20.829335 0.000001 0.000001 -0.000001 -8.076722 -0.486729 -3.806299 0.805668 -4.956408 27.407346 0.271517 -1.568492 19.641560 0.250799 -1.509177 18.869629 0.000000 0.000000 -0.000002 4.570400 11.014658 -2.160814 1.042837 -17.438626 -12.341001 3.805484 -18.920877 -69.216297 -0.000012 -1.657187 -0.000016 -31.059971 -1.833511 -6.265479 2.466076 -1.576213 2.681698 -0.653586 1.906339 4.916197 11.692009 24.073196 16.311265 2.647890 -1.528738 1.528750 -14.016845 3.077427 9.388630 1.998925 -1.154095 1.154076 -0.000001 -0.000001 -0.000000 9.109281 -0.518014 2.259900 0.136048 -1.132879 -6.329266 0.288919 1.818877 -18.051973 0.085139 0.996249 -9.769769 0.000001 -0.000000 0.000002 9.533384 0.000007 0.000000 -0.071150 2.719989 -16.130701 0.311695 1.887292 -18.756338 0.301173 1.856011 -18.433972 -0.000000 0.000002 -0.000000 9.104474 -0.042996 -1.865100 0.146948 3.757369 -22.937034 0.411610 2.159109 -21.585843 0.282181 1.798053 -17.838154 -0.000001 -0.000001 -0.000001 8.077804 -0.486892 -3.806301 0.805857 5.791891 -28.611418 0.331763 1.945348 -19.356326 0.306358 1.871502 -18.593520 -0.000001 -0.000002 -0.000002 -8.207800 -6.751718 -1.599545 -0.856086 -10.234678 2.511265 10.229387 -9.792495 -3.271289 -5.135764 -2.179540 3.410178 -7.379920 0.000008 -0.000001 0.000000 0.000001 0.000000 8.207800 -6.751704 -1.599544 -10.937009 14.820942 9.647630 12.883825 1.901034 4.164586 0.855722 0.369267 -7.216553 -4.898142 0.000005 -0.000001 -0.000000 -0.000000 0.000000 
-0.393890 102.910667 1.739808 -3.664436 -4.673133 -1.993912 -0.000001 10.181550 0.131524 3.336237 1.534626 1.605451 1.118518 0.313235 1.283788 1.098137 0.337079 1.282225 -0.000000 16.740358 -2.049019 5.792649 0.079224 0.384451 -0.000000 9.617858 1.684975 -8.292702 1.895801 -0.173532 -0.000000 22.037384 7.501075 -0.000001 -0.000000 0.000000 -4.570006 11.014853 -2.160836 1.197210 15.359992 14.606834 12.737680 25.721388 58.328607 0.000000 6.624214 0.000020 -16.326039 -0.082907 6.404938 -2.464813 -1.573989 2.681909 -1.664497 -0.168806 -4.217042 12.707794 -29.836619 -16.126891 -2.646255 -1.527802 1.527810 -15.551938 -3.555821 -12.703605 -1.994601 -1.151582 1.151577 0.000002 -0.000001 -0.000002 -9.108299 -0.517872 2.259802 -0.007881 0.971481 10.306171 0.348443 -1.769162 22.281868 0.111973 -1.016177 12.576290 -0.000001 0.000000 0.000004 -9.532505 0.000012 -0.000001 -0.134606 -2.418102 17.499115 0.333343 -1.731901 21.787969 0.412732 -1.918501 24.279885 0.000001 -0.000001 -0.000002 -9.103596 -0.043114 -1.865101 0.083024 -3.276843 22.166073 0.465778 -2.031949 25.818858 0.395759 -1.880467 23.768051 0.000001 0.000000 0.000002 -8.076694 -0.486734 -3.806297 0.864165 -5.025938 28.342847 0.335214 -1.736576 21.849903 0.316109 -1.688156 21.210304 -0.000002 0.000003 -0.000000 4.570400 11.014684 -2.160815 1.039575 -17.431256 -12.365079 3.685267 -17.852921 -68.665954 -0.000013 -1.861668 -0.000017 -28.889077 -2.310091 -6.321758 2.466094 -1.576212 2.681700 -0.640806 1.654030 4.995069 11.507031 22.732847 15.568749 2.647892 -1.528738 1.528753 -14.218736 2.611625 9.744813 1.998917 -1.154091 1.154076 -0.000001 0.000006 0.000003 9.109284 -0.518016 2.259900 0.255373 -1.296690 -5.066726 0.310750 1.884503 -18.727551 0.117889 1.170657 -11.502123 0.000001 -0.000001 0.000001 9.533397 0.000006 -0.000000 -0.064374 2.778085 -16.562758 0.357753 2.017783 -20.108214 0.301850 1.858043 -18.454877 -0.000000 -0.000001 0.000002 9.104506 -0.043001 -1.865101 0.159529 3.869866 -24.740846 0.437436 2.223232 -22.261342 0.281256 1.795185 -17.808755 0.000001 -0.000000 0.000002 8.077806 -0.486903 -3.806304 0.694724 6.028594 -30.096897 0.401241 2.132732 -21.308927 0.378312 2.073028 -20.684103 0.000000 -0.000001 -0.000001 -8.207801 -6.751724 -1.599542 -2.313307 -10.059893 1.528288 13.050553 -9.833719 -3.263348 -6.578244 -2.715461 3.597679 -7.486368 0.000005 0.000002 -0.000001 -0.000002 -0.000000 8.207801 -6.751708 -1.599543 -11.082775 14.907340 8.953631 13.597745 1.769963 4.165570 0.439614 0.223275 -7.324078 -4.863148 0.000006 0.000000 -0.000000 0.000001 0.000000 
-0.662927 102.676262 1.898291 -3.626484 -4.399438 -1.111029 0.000000 10.181555 0.131524 3.357465 1.532582 1.043484 1.104732 0.305322 1.149193 1.085316 0.327568 1.147866 0.000001 16.740398 -2.049023 5.877728 0.157333 0.344553 -0.000000 9.617856 1.684976 -8.663277 2.156770 -0.215601 0.000000 22.037369 7.501074 -0.000000 0.000000 0.000000 -4.569999 11.014894 -2.160843 1.201061 15.367926 14.556718 12.521569 24.807630 58.099338 -0.000002 6.591406 0.000016 -14.399219 0.127588 6.199965 -2.464801 -1.574008 2.681910 -1.664486 -0.168654 -4.217083 12.707653 -29.835807 -16.126533 -2.646272 -1.527830 1.527813 -15.551919 -3.555808 -12.703732 -1.994598 -1.151584 1.151576 -0.000001 -0.000006 -0.000000 -9.108297 -0.517882 2.259802 -0.023955 0.823999 12.045891 0.427584 -1.951082 24.719797 0.155610 -1.195048 14.837442 0.000003 0.000001 -0.000000 -9.532510 -0.000004 -0.000004 -0.130496 -2.523921 18.749814 0.402270 -1.895169 23.965629 0.516037 -2.132635 27.202103 -0.000000 -0.000001 -0.000000 -9.103598 -0.043091 -1.865104 0.111094 -3.375581 23.017522 0.556024 -2.208646 28.257594 0.497855 -2.096922 26.709455 0.000001 -0.000000 0.000002 -8.076713 -0.486727 -3.806300 0.923799 -5.094510 29.278569 0.405376 -1.902141 24.059471 0.388715 -1.864390 23.552389 -0.000000 0.000001 -0.000001 4.570400 11.014709 -2.160816 1.036317 -17.423886 -12.389150 3.555021 -16.786001 -68.116445 -0.000003 -2.066150 -0.000017 -26.717026 -2.788641 -6.359958 2.466096 -1.576223 2.681699 -0.627682 1.401736 5.073989 11.305122 21.394548 14.828436 2.647872 -1.528747 1.528748 -14.417653 2.144568 10.099234 1.998917 -1.154091 1.154078 -0.000000 0.000001 -0.000000 9.109282 -0.518017 2.259901 0.378304 -1.457854 -3.803607 0.333354 1.949870 -19.403200 0.155908 1.344036 -13.235086 0.000000 0.000000 -0.000001 9.533381 0.000005 0.000001 -0.057159 2.836130 -16.994848 0.406893 2.147170 -21.460487 0.302528 1.860073 -18.475778 -0.000000 -0.000000 0.000003 9.104481 -0.043000 -1.865099 0.175658 3.981940 -26.545375 0.464021 2.287051 -22.936935 0.280332 1.792316 -17.779356 -0.000000 0.000001 0.000003 8.077795 -0.486903 -3.806302 0.589734 6.268124 -31.582839 0.477100 2.317694 -23.262567 0.457612 2.271863 -22.775913 -0.000001 -0.000001 0.000002 -8.207801 -6.751705 -1.599545 -3.766725 -9.860541 0.550509 15.873783 -9.874527 -3.253347 -8.019922 -3.256031 3.771727 -7.592815 0.000003 0.000001 0.000001 0.000002 0.000000 8.207800 -6.751708 -1.599545 -11.227511 14.995441 8.259551 14.311640 1.638908 4.168187 0.023222 0.078070 -7.432661 -4.828153 0.000005 0.000001 -0.000000 0.000001 0.000000 
